<?xml version="1.0" encoding="UTF-8"?>
<svg width="24px" height="24px" viewBox="0 0 24 24" version="1.1" xmlns="http://www.w3.org/2000/svg" xmlns:xlink="http://www.w3.org/1999/xlink">
    <!-- Generator: Sketch 61.2 (89653) - https://sketch.com -->
    <title>bg-logo-red</title>
    <desc>Created with Sketch.</desc>
    <g id="Page-1" stroke="none" stroke-width="1" fill="none" fill-rule="evenodd">
        <g id="bg-logo-red" fill-rule="nonzero">
            <path d="M12,0 C5.37222222,0 0,5.37222222 0,12 C0,18.6277778 5.37222222,24 12,24 C18.6277778,24 24,18.6277778 24,12 C24,5.37222222 18.6277778,0 12,0 Z" id="Shape" fill="#2D2D2F"></path>
            <path d="M16.8666667,14.6333333 C16.8666667,14.6333333 16.7777778,14.9555555 16.6944445,15.1388889 C16.6111111,15.3555556 16.4,15.5055556 16.1555555,15.5055556 C15.8333333,15.5055556 15.5722222,15.2444444 15.5722222,14.9277777 C15.5722222,14.9055556 15.5666667,14.7944444 15.5666667,14.7777777 L15.5666667,10.0722222 C15.55,8.03333331 14.3611111,6.91666667 11.8222222,6.91666667 C11.1833333,6.91666667 10.5722223,6.98888886 10.0166667,7.12222225 C10.0166667,7.12222225 9.75555556,7.17777777 9.39444442,7.31111109 C9.13333333,7.41111114 8.89444446,7.52222223 8.67777777,7.65555556 C8.15000002,7.97222223 7.63888888,8.44444446 7.5,9.13888888 C7.49444444,9.17222223 7.48888888,9.20000002 7.48333333,9.23333331 C7.48333333,9.23333331 7.48333333,9.23333331 7.48333333,9.23888886 C7.47222221,9.31666667 7.46666665,9.39444442 7.46666665,9.47777779 C7.46666665,10.35 8.16666669,11.05 9.08333331,11.05 C9.99999998,11.05 10.7,10.35 10.7,9.45555556 C10.7,9.01666667 10.5222222,8.62222225 10.2277778,8.33333331 C10.5333333,8.23333333 10.8555556,8.18888886 11.2277778,8.18888886 C12.5055556,8.18888886 13.1,8.67777777 13.1,9.93333335 L13.1,10.8888889 C13.1,11.2055555 12.9277778,11.2277778 11.7166667,11.4 C9.63333335,11.7 8.58888891,12.0166667 7.86666669,12.7388889 C7.37777779,13.2277778 7.14444442,13.8222222 7.14444442,14.5055555 C7.14444442,16.0388889 8.29444446,17.0777778 10.0777778,17.0777778 C11.0333333,17.0777778 11.9555555,16.7444444 12.6222222,16.0944445 C12.6222222,16.0944445 12.6222222,16.0944445 12.6277778,16.0888889 C12.7555556,15.9666667 12.8722222,15.8277777 12.9777777,15.6833333 C13.1888889,15.4166667 13.3833333,15.0722223 13.3833333,15.0722223 C13.4333333,16.1888889 14.3611111,17.0722222 15.5388889,17.0722222 C16.7333333,17.0722222 17.65,16.1777778 17.6888889,15.0222222 L16.8666667,14.6333333 Z M13.1,13.4666667 C13.1,14.2944445 12.6611111,14.95 12.0833333,15.2833333 C12.0222222,15.3222222 11.9555555,15.3555556 11.8888889,15.3833333 C11.8722222,15.3888889 11.85,15.4 11.8333333,15.4055555 C11.6611111,15.4722222 11.4666667,15.5111111 11.2666667,15.5111111 C10.5277778,15.5111111 9.93888891,15.0222222 9.78333335,14.3666667 C9.75555556,14.2555556 9.73888888,14.1444445 9.73888888,14.0277777 C9.73888888,13.9055555 9.75555556,13.7833333 9.78888891,13.6722222 C9.9,13.2277778 10.2055556,12.8611111 10.6277778,12.6666667 C10.6611111,12.6555556 10.6944445,12.6388889 10.7277777,12.6277778 C11.0777778,12.4944445 11.5388889,12.3888889 12.1444444,12.2944444 C12.6777777,12.2111111 12.9111111,12.1666667 13.1,12.0833333 L13.1,13.4666667 Z" id="Shape" fill="#FFFFFF"></path>
            <path d="M19.8919619,17.0526316 C18.9984275,17.0526316 18.3157895,16.3565365 18.3157895,15.4850028 C18.3157895,14.6191285 18.9984275,13.8947368 19.9141615,13.8947368 C20.7854963,13.8947368 21.4736842,14.5908319 21.4736842,15.4623656 C21.4681343,16.3508772 20.7854963,17.0526316 19.8919619,17.0526316 Z" id="Shape" fill="#EF3F23"></path>
        </g>
    </g>
</svg>