<svg xmlns="http://www.w3.org/2000/svg" height="18" width="22" style=""><rect id="backgroundrect" width="100%" height="100%" x="0" y="0" fill="none" stroke="none"/><g class="currentLayer" style=""><title>Layer 1</title><path class="heroicon-ui" d="M19.595857348442077,9.037589311599731 l-3.3,-3.3 a1,1 0 1 1 1.42,-1.4 l4,4 a1,1 0 0 1 0,1.4 l-4,4 a1,1 0 0 1 -1.42,-1.4 l3.3,-3.3 zM2.4058573484420775,9.037589311599731 l3.3,3.3 a1,1 0 0 1 -1.42,1.4 l-4,-4 a1,1 0 0 1 0,-1.4 l4,-4 a1,1 0 0 1 1.42,1.4 L2.4058573484420775,9.037589311599731 zm7.5600000000000005,8.24 a1,1 0 0 1 -1.94,-0.48000000000000004 l4,-16 a1,1 0 1 1 1.94,0.48000000000000004 l-4,16 z" id="svg_1"/></g></svg>