<svg xmlns="http://www.w3.org/2000/svg" xmlns:sketch="http://www.bohemiancoding.com/sketch/ns" xmlns:xlink="http://www.w3.org/1999/xlink" height="37" version="1.1" width="37"><rect id="backgroundrect" width="100%" height="100%" x="0" y="0" fill="none" stroke="none"/><title/><desc/><defs/><g class="currentLayer" style=""><title>Layer 1</title><g fill="none" fill-rule="evenodd" id="black" stroke="none" stroke-width="1" class=""><g id="slice"/><g fill="#000000" id="github"><path d="M13.886812214819336,35.97842701481934 C13.886812214819336,35.52871121481934 13.870945514819336,34.338765514819336 13.861878814819335,32.758368814819335 C8.726716214819334,33.90183231481934 7.643243374819335,30.22043771481934 7.643243374819335,30.22043771481934 C6.803438594819337,28.033447614819337 5.593031704819335,27.451257414819338 5.593031704819335,27.451257414819338 C3.916822154819336,26.276418414819332 5.719965754819334,26.300821614819334 5.719965754819334,26.300821614819334 C7.572976314819336,26.434458114819336 8.547648524819337,28.251914214819337 8.547648524819337,28.251914214819337 C10.194391214819333,31.144272514819335 12.867939814819337,30.309916014819336 13.920812414819338,29.825338514819336 C14.088546714819337,28.601693214819335 14.565682814819336,27.767336714819336 15.092685814819337,27.294379814819337 C10.993395814819337,26.816774614819337 6.683304574819335,25.19221981481934 6.683304574819335,17.938664014819334 C6.683304574819335,15.872527714819334 7.402975344819335,14.182897814819334 8.583915404819336,12.859315614819337 C8.394647654819337,12.380548414819337 7.759977374819336,10.456183014819338 8.765249764819337,7.849690604819337 C8.765249764819337,7.849690604819337 10.315658614819334,7.340709914819335 13.841478714819338,9.790324714819334 C15.313687014819337,9.370822394819335 16.893562714819335,9.159328134819336 18.464371614819335,9.152355794819336 C20.031780614819336,9.159328134819336 21.610522914819335,9.370822394819335 23.08613131481934,9.790324714819334 C26.609684714819338,7.340709914819335 28.157826814819337,7.849690604819337 28.157826814819337,7.849690604819337 C29.165365914819333,10.455021014819337 28.531829014819337,12.379386314819335 28.341427914819334,12.859315614819337 C29.524634614819334,14.182897814819334 30.23863871481933,15.872527714819334 30.23863871481933,17.938664014819334 C30.23863871481933,25.21081271481934 25.921747414819336,26.810964314819337 21.808857414819336,27.27927301481934 C22.472994514819334,27.863787414819335 23.062331214819338,29.018871414819337 23.062331214819338,30.78519711481934 C23.062331214819338,33.31615591481933 23.03853101481934,35.357888914819334 23.03853101481934,35.97842701481934 C23.03853101481934,36.48508361481934 23.371732914819333,37.07308411481934 24.30900491481934,36.88831711481934 C31.638313314819335,34.38059951481934 36.92307681481934,27.289731514819337 36.92307681481934,18.929898014819337 C36.92307681481934,8.474876934819335 28.656496414819337,-1.4718066410068786e-7 18.460971614819336,-1.4718066410068786e-7 C8.266580264819336,-1.4718066410068786e-7 -1.4718066410068786e-7,8.474876934819335 -1.4718066410068786e-7,18.929898014819337 C0.0011331928193367702,27.29205571481934 5.290429974819336,34.38757181481934 12.626538414819336,36.89064121481933 C13.549077014819336,37.06378761481933 13.886812214819336,36.47927331481934 13.886812214819336,35.97842701481934 z" id="svg_1"/></g></g></g></svg>