<?xml version="1.0" encoding="utf-8"?>
<!-- Generator: Adobe Illustrator 19.0.0, SVG Export Plug-In . SVG Version: 6.00 Build 0)  -->
<svg version="1.1" id="Capa_1" xmlns="http://www.w3.org/2000/svg" xmlns:xlink="http://www.w3.org/1999/xlink" x="0px" y="0px"
	 viewBox="-581 74 36.3 53" style="enable-background:new -581 74 36.3 53;" xml:space="preserve">
<style type="text/css">
	.st0{fill:#262626;}
	.st1{fill:#BA8B3B;}
</style>
<title>A83C2E69-4ABD-40EC-B6A4-350889EB054A-463-000049AB2A208DD6</title>
<desc>Created with sketchtool.</desc>
<g id="Basics-_x2F_-Header-_x2F_-Desktop">
	<g id="Foundation-_x2F_-Icons-_x2F_-Logo-_x2F_-Horizontal" transform="translate(60.000000, 24.000000)">
		<g id="Foundation-_x2F_-Logos-_x2F_-Legacy-_x2F_-Horizontal">
			<path id="Combined-Shape" class="st0" d="M-604.8,87.7c0.1,0.5,0,0.9-0.3,1.2c-0.3,0.3-0.7,0.5-1.1,0.5h-2.5l0.4,1.9
				c0.1,0.4,0,0.8-0.3,1.2c-0.3,0.3-0.7,0.5-1.1,0.5h-1.1l0.3,1.8c0.1,0.6-0.2,1.3-0.7,1.6l-11.3,6.2h-0.1c0,0,0,0-0.1,0
				c-0.1,0-0.1,0-0.2,0l0,0l0,0c-0.1,0-0.1,0-0.2,0c0,0,0,0-0.1,0h-0.1l-11.3-6.2c-0.6-0.3-0.9-0.9-0.7-1.6l0.3-1.8h-1.1
				c-0.4,0-0.8-0.2-1.1-0.5c-0.3-0.3-0.4-0.8-0.3-1.2l0.4-1.9h-2.5c-0.4,0-0.8-0.2-1.1-0.5c-0.3-0.3-0.4-0.7-0.3-1.2l2-8.1
				c0.1-0.4,0.3-0.7,0.6-0.9c0.1-0.1,0.2-0.1,0.3-0.2v-5.3c0-0.1,0-0.1,0-0.2V61.6c0-0.5,0.3-1,0.7-1.2c0.4-0.3,0.9-0.3,1.4,0
				l10.7,4.9c0,0,0.1,0,0.1,0.1l1.9-0.9c0,0,0,0,0.1,0h0.1h0.1h0.1h0.1h0.1h0.1h0.1h0.1c0,0,0,0,0.1,0l1.9,0.9l0.1-0.1l10.7-4.9
				c0.4-0.2,0.9-0.2,1.3,0.1c0.4,0.3,0.7,0.7,0.7,1.2V73c0,0.1,0,0.1,0,0.2v5.3c0.1,0,0.2,0.1,0.3,0.2c0.3,0.2,0.6,0.6,0.6,1
				L-604.8,87.7z M-609,87.6h2.4l-1.8-7.5l-9.4,2.6l2,10.5c0.1,0.5,0,1.1-0.4,1.4c-0.4,0.4-1,0.5-1.5,0.3h-0.1l-2-0.8h-6.5l-2.2,0.8
				c-0.5,0.2-1.1,0.1-1.5-0.3s-0.5-0.9-0.4-1.5l2.5-10.4l-9.4-2.6l-1.8,7.5h2.4c0.4,0,0.8,0.2,1.1,0.5c0.3,0.3,0.4,0.8,0.3,1.2
				l-0.4,1.8h1.2c0.4,0,0.8,0.2,1.1,0.5c0.3,0.3,0.4,0.7,0.3,1.1l-0.4,2l10.6,5.8l10.6-5.8l-0.4-2c-0.1-0.4,0-0.8,0.3-1.1
				c0.3-0.3,0.6-0.5,1.1-0.5h1.2l-0.4-1.8c-0.1-0.4,0-0.9,0.3-1.2C-609.9,87.8-609.5,87.6-609,87.6z M-636.2,62.8v8l5.9-3
				L-636.2,62.8z M-627,66.3l-5.3-2.4l3.7,3.2L-627,66.3z M-622.9,66.1l-4.4,2.2l4.4,3.8l4.4-3.8L-622.9,66.1z M-613.3,63.9
				l-5.3,2.4l1.6,0.8L-613.3,63.9z M-629.5,80.4l-1.9-2.4l-2.1,1.3L-629.5,80.4z M-622.9,89.4l1.1-1h-1.1h-1.1L-622.9,89.4z
				 M-612.2,79.4l-2.2-1.4l-1.8,2.4L-612.2,79.4z M-613.7,76.4l3.8,2.4l0.5-0.1V73l-7.3-3.7l-5.6,4.8l0,0c-0.1,0.1-0.2,0.1-0.2,0.1
				s0,0-0.1,0c-0.1,0-0.2,0-0.3,0l0,0l0,0l0,0l0,0c-0.1,0-0.2,0-0.3,0c0,0,0,0-0.1,0c-0.1,0-0.2-0.1-0.2-0.1l0,0l-5.6-4.8l-7.3,3.7
				v5.8l0.5,0.1l3.7-2.4c0.6-0.4,1.4-0.3,1.9,0.3l3.7,4.8c0.1,0.1,0.2,0.2,0.2,0.3c0,0,0,0,0,0.1V82c0.1,0.3,0.2,0.7,0.1,1
				l-2.4,10.1l4.8-1.8c0-0.1,0-0.2,0-0.2l-2.3-2.1c-0.3-0.4-0.4-1-0.2-1.5s0.7-0.8,1.2-0.8h2.2h2.2c0.5,0,1,0.3,1.2,0.8
				s0.2,1-0.2,1.4l-0.1,0.1l-2.3,2c0,0.1,0,0.1,0,0.2v0.1l4.4,1.8l-2-10.2c-0.1-0.3,0-0.7,0.1-1v-0.1v-0.1c0.1-0.1,0.1-0.2,0.2-0.3
				l3.6-4.8C-615.2,76.1-614.4,76-613.7,76.4z M-609.4,62.8l-5.9,5.2l5.9,3V62.8z M-622.9,78.4c0.5,0,0.9,0.4,0.9,0.9l-0.1,5.9
				c0,0.5-0.4,0.9-0.9,0.9l0,0c-0.5,0-0.9-0.4-0.9-0.9l0.1-5.9C-623.7,78.8-623.3,78.4-622.9,78.4L-622.9,78.4z M-618.1,74.5
				c0.3-0.3,0.9-0.3,1.2,0c0.3,0.3,0.3,0.9,0,1.3l-2.6,2.6c-0.2,0.2-0.4,0.3-0.6,0.3s-0.4-0.1-0.6-0.3c-0.3-0.3-0.3-0.9,0-1.3
				L-618.1,74.5z M-627.6,74.5l2.6,2.6c0.3,0.3,0.3,0.9,0,1.3c-0.2,0.2-0.4,0.3-0.6,0.3c-0.2,0-0.4-0.1-0.6-0.3l-2.6-2.6
				c-0.3-0.3-0.3-0.9,0-1.3C-628.5,74.2-628,74.2-627.6,74.5z"/>
			<path id="Fill-10" class="st1" d="M-612.1,52.3c0,0.9-0.5,1.7-1.3,2v5.5c0,0.8-0.6,1.4-1.4,1.4h-7.9h-0.5h-7.9
				c-0.8,0-1.4-0.6-1.4-1.4v-5.6c-0.7-0.3-1.3-1.1-1.3-2c0-1.2,1-2.2,2.2-2.2s2.2,1,2.2,2.2c0,0.8-0.4,1.4-1,1.8l3.2,2l3.2-2
				c-0.6-0.4-0.9-1-0.9-1.8c0-1.2,1-2.2,2.2-2.2s2.2,1,2.2,2.2c0,0.7-0.4,1.4-0.9,1.8l3.2,2l3.2-2c-0.6-0.4-1-1.1-1-1.8
				c0-1.2,1-2.2,2.2-2.2C-612.8,50-612.1,51.1-612.1,52.3z M-615.1,59.3v-3.5l-2.8,1.8c-0.4,0.3-1,0.3-1.4,0l-3.7-2.4l-3.7,2.4
				c-0.4,0.3-1,0.3-1.4,0l-2.8-1.8v3.5h7.6h0.5H-615.1z M-631.7,51.5c-0.4,0-0.8,0.4-0.8,0.8c0,0.4,0.4,0.8,0.8,0.8s0.8-0.4,0.8-0.8
				C-630.9,51.8-631.3,51.5-631.7,51.5z M-623,51.5c-0.4,0-0.8,0.4-0.8,0.8c0,0.4,0.4,0.8,0.8,0.8c0.4,0,0.8-0.4,0.8-0.8
				C-622.2,51.8-622.6,51.5-623,51.5z M-614.2,51.5c-0.4,0-0.8,0.4-0.8,0.8c0,0.4,0.4,0.8,0.8,0.8c0.4,0,0.8-0.4,0.8-0.8
				C-613.4,51.8-613.8,51.5-614.2,51.5z"/>
		</g>
	</g>
</g>
</svg>
