<svg xmlns="http://www.w3.org/2000/svg" xmlns:xlink="http://www.w3.org/1999/xlink" enable-background="new 0 0 56.693 56.693" height="50" version="1.1" width="49" xml:space="preserve"><rect id="backgroundrect" width="100%" height="100%" x="0" y="0" fill="none" stroke="none" class="" style=""/><g class="currentLayer" style=""><title>Layer 1</title><g id="svg_1" class=""><path d="M26.57700004196167,22.434000183105468 v-0.07700000000000001 c-0.016000000000000004,0.026000000000000006 -0.03300000000000001,0.05200000000000001 -0.05000000000000001,0.07700000000000001 H26.57700004196167 z" id="svg_2"/><path d="M45.77100004196167,1.831054685652589e-7 H3.6510000419616695 c-2.016,0 -3.6510000000000002,1.596 -3.6510000000000002,3.563 v42.613 c0,1.9660000000000002 1.6350000000000002,3.5620000000000003 3.6510000000000002,3.5620000000000003 h42.12 c2.019,0 3.654,-1.597 3.654,-3.5620000000000003 V3.563000183105469 C49.42500004196167,1.5950001831054692 47.78900004196167,1.831054685652589e-7 45.77100004196167,1.831054685652589e-7 zM14.981000041961671,41.63700018310547 h-7.465 V19.178000183105468 h7.465 V41.63700018310547 zM11.24900004196167,16.11000018310547 h-0.05000000000000001 c-2.504,0 -4.124,-1.725 -4.124,-3.88 c0,-2.203 1.6700000000000002,-3.88 4.223,-3.88 c2.5540000000000003,0 4.125,1.677 4.175,3.88 C15.473000041961669,14.385000183105468 13.851000041961669,16.11000018310547 11.24900004196167,16.11000018310547 zM41.90000004196167,41.63700018310547 h-7.465 V29.61900018310547 c0,-3.018 -1.08,-5.078 -3.781,-5.078 c-2.062,0 -3.29,1.389 -3.831,2.731 c-0.19700000000000004,0.47900000000000004 -0.24500000000000002,1.149 -0.24500000000000002,1.8210000000000002 v12.543 h-7.465 c0,0 0.09800000000000003,-20.354 0,-22.459 h7.465 v3.179 c0.992,-1.53 2.766,-3.709 6.729,-3.709 c4.911,0 8.594,3.211 8.594,10.11 V41.63700018310547 z" id="svg_3"/></g></g></svg>